<svg width="68" height="83" viewBox="0 0 68 83" fill="none" xmlns="http://www.w3.org/2000/svg">
<path d="M38.0625 18.4375C38.9167 18.4375 39.3438 18.8854 39.3438 19.7813C39.3438 20.2396 39.1979 20.7708 38.9062 21.375C38.6354 21.9583 38.4167 22.4375 38.25 22.8125L21.2812 64.7188L0.71875 18.7813H17.7812L27.7188 42.1563L34.6875 24.7188C35.4375 22.8438 35.9271 21.4896 36.1562 20.6563C36.3854 19.8229 36.6354 19.25 36.9062 18.9375C37.1771 18.6042 37.5625 18.4375 38.0625 18.4375Z" fill="black"/>
<path d="M29.9375 64.5625C29.0833 64.5625 28.6563 64.1146 28.6563 63.2187C28.6563 62.7604 28.8021 62.2292 29.0938 61.625C29.3646 61.0417 29.5833 60.5625 29.75 60.1875L46.7188 18.2812L67.2813 64.2188L50.2188 64.2187L40.2813 40.8437L33.3125 58.2812C32.5625 60.1562 32.0729 61.5104 31.8438 62.3437C31.6146 63.1771 31.3646 63.75 31.0938 64.0625C30.8229 64.3958 30.4375 64.5625 29.9375 64.5625Z" fill="black"/>
</svg>
